<svg id="visual" viewBox="0 0 900 600" width="900" height="600" xmlns="http://www.w3.org/2000/svg" xmlns:xlink="http://www.w3.org/1999/xlink" version="1.1"><path d="M0 481L16.7 487C33.3 493 66.7 505 100 501C133.3 497 166.7 477 200 465.8C233.3 454.7 266.7 452.3 300 457.5C333.3 462.7 366.7 475.3 400 487.8C433.3 500.3 466.7 512.7 500 516.2C533.3 519.7 566.7 514.3 600 504.3C633.3 494.3 666.7 479.7 700 467.3C733.3 455 766.7 445 800 444.7C833.3 444.3 866.7 453.7 883.3 458.3L900 463" fill="none" stroke="#0066FF" stroke-width="40" stroke-linecap="round" stroke-linejoin="miter"></path></svg>